<svg xmlns="http://www.w3.org/2000/svg" xmlns:xlink="http://www.w3.org/1999/xlink" width="106" height="104" viewBox="0 0 106 104"><defs><path id="17rma" d="M182.802 2551.803c0 7.179-2.79 13.928-7.858 19.004-5.067 5.077-11.803 7.872-18.969 7.872s-13.902-2.795-18.97-7.872c-10.459-10.479-10.459-27.53 0-38.01 5.068-5.076 11.805-7.871 18.97-7.871 7.166 0 13.902 2.796 18.97 7.872 5.066 5.076 7.857 11.825 7.857 19.005zm-47.73 11.341l6.421-6.668a5.43 5.43 0 0 1-.718-2.704c0-3.007 2.442-5.454 5.444-5.454s5.444 2.447 5.444 5.454l-.003.106 12.24 3.848a5.44 5.44 0 0 1 4.526-2.427c.968 0 1.878.255 2.666.701l8.327-8.158c-.806-4.855-3.092-9.33-6.635-12.88-4.49-4.498-10.46-6.975-16.809-6.975-6.35 0-12.32 2.477-16.809 6.975-7.604 7.619-8.967 19.156-4.095 28.182zm33.354-4.784a2.394 2.394 0 0 0 0 4.786 2.394 2.394 0 0 0 0-4.786zm-22.207-6.982a2.394 2.394 0 0 0 0 4.787 2.394 2.394 0 0 0 0-4.787zm33.528.425l-6.518 6.385a5.43 5.43 0 0 1 .642 2.565c0 3.007-2.443 5.455-5.445 5.455-3.002 0-5.444-2.448-5.444-5.455 0-.036.002-.071.003-.106l-12.24-3.848a5.44 5.44 0 0 1-4.526 2.427 5.401 5.401 0 0 1-2.527-.625l-6.943 7.21c.72.99 1.526 1.939 2.417 2.832 4.49 4.498 10.46 6.975 16.81 6.975 6.349 0 12.318-2.477 16.808-6.975 4.49-4.498 6.962-10.479 6.963-16.84zm-16.955-19.513l-1.005 2.89c-5.956-2.078-12.598-.807-17.336 3.32l-2.004-2.311c5.562-4.844 13.358-6.338 20.345-3.9zm6.63 3.83l-1.992 2.32a17.5 17.5 0 0 0-2.307-1.681l1.59-2.615c.95.58 1.862 1.245 2.71 1.975zm-9.162 35.901a20.6 20.6 0 0 1-11.984-1.036l1.137-2.841a17.588 17.588 0 0 0 10.217.883zm60.701 31.045l-14.25 14.277-26.717-26.673 2.294-2.298-5.517-5.908a36.91 36.91 0 0 1-20.796 6.39c-9.475 0-18.95-3.612-26.163-10.84a37.446 37.446 0 0 1-2.337-2.572l-2.247 2.334c.456.797.719 1.72.719 2.703 0 3.008-2.442 5.455-5.445 5.455-3.002 0-5.444-2.447-5.444-5.455 0-3.007 2.442-5.455 5.444-5.454.912 0 1.772.227 2.527.625l2.573-2.671c-10.044-14.446-8.641-34.514 4.21-47.389 14.427-14.453 37.9-14.454 52.327 0a36.877 36.877 0 0 1 7.93 11.818l3.347-3.279a5.425 5.425 0 0 1-.69-2.652c0-3.008 2.443-5.455 5.445-5.455 1.004 0 1.944.275 2.753.752l9.25-9.062h-4.621v-3.06h9.895v9.913h-3.055v-4.746l-9.373 9.183c.38.743.595 1.584.595 2.475 0 3.007-2.443 5.454-5.445 5.454-.932 0-1.81-.236-2.578-.652l-4.367 4.278c3.38 10.693 1.811 22.626-4.702 32.165l5.503 5.893 2.218-2.222zm-25.18-71.589a2.394 2.394 0 0 0 2.39 2.393 2.394 2.394 0 0 0 0-4.786 2.394 2.394 0 0 0-2.39 2.393zm-72.89 49.002a2.394 2.394 0 0 0-2.389-2.393 2.394 2.394 0 0 0 0 4.787 2.394 2.394 0 0 0 2.39-2.394zm57.087-4.629c13.235-13.26 13.235-34.836 0-48.095-6.618-6.63-15.31-9.945-24.003-9.945s-17.385 3.315-24.003 9.945c-13.235 13.26-13.235 34.835 0 48.095 13.235 13.26 34.771 13.26 48.006 0zm4.471 10.356l5.416-5.425-5.2-5.568a37.372 37.372 0 0 1-5.424 5.415zm32.188 16.863l-22.389-22.351-9.93 9.948 22.389 22.352zm-11.798-7.295l-2.16 2.164-8.432-8.448-2.212 2.216-2.16-2.165 4.372-4.38zm.459 4.783l2.16-2.164 2.264 2.268-2.16 2.165zm-73.687-10.134h3.056v3.335h-3.056zm0 18.692h3.056v3.335h-3.056zm25.163-12.26h3.055v3.335h-3.055zm43.786-27.53h3.055v3.335h-3.055zm3.466-26.56h3.055v3.334h-3.055zm10.125 14.063h3.055v3.335h-3.055z"/></defs><g><g transform="translate(-115 -2514)"><g><use xlink:href="#17rma"/></g></g></g></svg>