<svg xmlns="http://www.w3.org/2000/svg" xmlns:xlink="http://www.w3.org/1999/xlink" width="88" height="100" viewBox="0 0 88 100"><defs><path id="moroa" d="M906.314 2564.344v38.093c0 .035-.02.067-.02.101-.01.147-.038.292-.086.43-.018.054-.031.104-.055.155-.08.18-.192.344-.33.485l-11.573 11.594c-.31.31-.73.484-1.169.485h-64.476a1.655 1.655 0 0 1-1.653-1.656v-96.063c0-.914.74-1.656 1.653-1.656h76.05c.912 0 1.652.742 1.652 1.656v23.188h-3.306v-21.531h-72.742v92.75h61.17v-9.938c0-.915.74-1.656 1.652-1.656h9.92v-36.437zm-5.65 39.75h-5.93v5.939zm12.598-52.658l-28.931 28.985c-.31.31-.73.485-1.169.485h-4.96a1.655 1.655 0 0 1-1.653-1.656v-4.97c0-.439.175-.86.484-1.17l28.932-28.984a5.273 5.273 0 0 1 7.297 0 5.183 5.183 0 0 1 0 7.31zm-10.119 5.454l-2.622-2.627-20.665 20.704v2.626h2.622zm4.133-4.14l-2.622-2.627-1.795 1.799 2.622 2.626zm3.649-6.282a1.895 1.895 0 0 0-2.622 0l-1.311 1.313 2.622 2.627 1.31-1.314c.722-.726.722-1.9 0-2.626zm-62.48-2c0 3.66-2.962 6.625-6.614 6.625-3.652 0-6.613-2.966-6.613-6.624 0-3.66 2.961-6.625 6.613-6.625 3.652 0 6.613 2.965 6.613 6.625zm-3.307 0a3.31 3.31 0 0 0-3.307-3.312 3.31 3.31 0 0 0-3.306 3.313 3.31 3.31 0 0 0 3.306 3.312 3.31 3.31 0 0 0 3.307-3.312zm23.83-16.562l3.79 3.798-2.337 2.341-3.791-3.797-3.791 3.797-2.338-2.341 3.791-3.798-3.79-3.798 2.337-2.342 3.79 3.798 3.792-3.798 2.337 2.342zm25.767 14.906c0 3.659-2.961 6.625-6.613 6.625-3.653 0-6.613-2.966-6.613-6.625s2.96-6.625 6.613-6.625c3.652 0 6.613 2.966 6.613 6.625zm-3.307 0a3.31 3.31 0 0 0-3.306-3.312 3.31 3.31 0 0 0-3.307 3.312 3.31 3.31 0 0 0 3.307 3.313 3.31 3.31 0 0 0 3.306-3.313zm-38.024 48.031c0 3.66-2.96 6.625-6.613 6.625-3.652 0-6.613-2.966-6.613-6.625s2.96-6.625 6.613-6.625c3.652 0 6.613 2.966 6.613 6.625zm-3.307 0a3.31 3.31 0 0 0-3.306-3.312 3.31 3.31 0 0 0-3.307 3.312 3.31 3.31 0 0 0 3.307 3.313 3.31 3.31 0 0 0 3.306-3.313zm.685-24.843l3.79 3.797-2.337 2.342-3.79-3.798-3.792 3.798-2.337-2.342 3.79-3.797-3.79-3.798 2.337-2.342 3.791 3.798 3.791-3.798 2.338 2.342zm41.33 23.187l3.791 3.798-2.337 2.342-3.791-3.798-3.79 3.798-2.339-2.342 3.791-3.798-3.79-3.798 2.337-2.342 3.79 3.798 3.792-3.798 2.337 2.342zm-35.92-3.852l-2.448-2.23c7.879-8.667 8.395-21.755 1.224-31.018v2.319h-3.307v-6.625c0-.915.74-1.656 1.654-1.656h6.612v3.312h-2.81c8.632 10.536 8.239 25.822-.924 35.898zm17.05 13.79c0 3.659-2.96 6.624-6.612 6.624-3.653 0-6.613-2.965-6.613-6.624 0-3.66 2.96-6.625 6.613-6.625 3.652 0 6.613 2.966 6.613 6.625zm-3.306 0a3.31 3.31 0 0 0-3.306-3.313 3.31 3.31 0 0 0-3.307 3.313 3.31 3.31 0 0 0 3.307 3.312 3.31 3.31 0 0 0 3.306-3.312zm7.782-56.798l-4.96 4.969-2.337-2.342 2.137-2.142h-20.807v-3.312h20.807l-2.137-2.142 2.337-2.342 4.96 4.97a1.658 1.658 0 0 1 0 2.34zm5.444 8.766v6.626h-3.306v-2.57a43.319 43.319 0 0 0-11.573 29.588v4.45h-3.307v-4.45a46.597 46.597 0 0 1 12.598-31.987h-2.678v-3.313h6.613c.913 0 1.653.742 1.653 1.656z"/></defs><g><g transform="translate(-827 -2516)"><g><use xlink:href="#moroa"/></g></g></g></svg>