<?xml version="1.0" standalone="no"?>
<!DOCTYPE svg PUBLIC "-//W3C//DTD SVG 20010904//EN"
 "http://www.w3.org/TR/2001/REC-SVG-20010904/DTD/svg10.dtd">
<svg version="1.0" xmlns="http://www.w3.org/2000/svg"
 width="256.000000pt" height="256.000000pt" viewBox="0 0 256.000000 256.000000"
 preserveAspectRatio="xMidYMid meet">
<metadata>
Created by potrace 1.15, written by Peter Selinger 2001-2017
</metadata>
<g transform="translate(0.000000,256.000000) scale(0.100000,-0.100000)"
fill="#000000" stroke="none">
<path d="M260 2546 c-120 -40 -210 -132 -249 -255 -15 -48 -15 -1974 0 -2022
40 -125 131 -217 254 -256 30 -9 156 -13 493 -13 l452 0 0 455 0 455 -150 0
-150 0 0 150 0 150 150 0 150 0 0 173 c1 94 5 203 9 240 23 172 156 305 328
328 37 4 146 8 241 9 l172 0 0 -150 0 -150 -177 0 c-158 0 -181 -2 -207 -19
-61 -41 -66 -58 -66 -253 l0 -178 215 0 c118 0 215 -3 215 -6 0 -10 -39 -245
-45 -272 -5 -22 -7 -22 -195 -22 l-190 0 0 -455 0 -455 373 0 c271 0 383 4
412 13 123 39 214 131 254 256 17 53 15 1973 -2 2026 -39 123 -131 214 -256
254 -50 16 -1983 13 -2031 -3z m2010 -162 c53 -25 103 -78 121 -131 20 -56 20
-1890 0 -1946 -18 -53 -68 -106 -121 -131 -42 -19 -66 -21 -327 -24 l-283 -4
0 306 0 306 185 0 c102 0 185 3 185 6 0 9 90 547 95 572 l5 22 -235 0 -235 0
0 75 0 75 225 0 225 0 0 300 0 300 -309 0 c-280 0 -315 -2 -373 -20 -117 -36
-219 -115 -290 -224 -64 -99 -78 -163 -78 -347 l0 -159 -150 0 -150 0 0 -300
0 -300 150 0 150 0 0 -306 0 -305 -362 3 c-343 3 -365 4 -408 24 -53 25 -103
78 -121 131 -20 56 -20 1890 0 1946 26 76 91 130 174 147 23 4 456 7 962 7
910 -2 921 -2 965 -23z"/>
</g>
</svg>
