<?xml version="1.0" standalone="no"?>
<!DOCTYPE svg PUBLIC "-//W3C//DTD SVG 20010904//EN"
 "http://www.w3.org/TR/2001/REC-SVG-20010904/DTD/svg10.dtd">
<svg version="1.0" xmlns="http://www.w3.org/2000/svg"
 width="256.000000pt" height="256.000000pt" viewBox="0 0 256.000000 256.000000"
 preserveAspectRatio="xMidYMid meet">
<metadata>
Created by potrace 1.15, written by Peter Selinger 2001-2017
</metadata>
<g transform="translate(0.000000,256.000000) scale(0.100000,-0.100000)"
fill="#000000" stroke="none">
<path d="M260 2546 c-120 -40 -210 -132 -249 -255 -15 -48 -15 -1974 0 -2022
40 -125 131 -217 254 -256 58 -18 1972 -18 2030 0 123 39 214 131 254 256 17
53 15 1973 -2 2026 -39 123 -131 214 -256 254 -50 16 -1983 13 -2031 -3z
m2010 -162 c53 -25 103 -78 121 -131 11 -31 14 -212 14 -973 0 -1027 3 -979
-62 -1051 -71 -78 -12 -74 -1063 -74 -1027 0 -979 -3 -1051 62 -78 71 -74 12
-74 1063 0 1019 -2 978 58 1046 35 41 73 62 130 74 23 4 456 7 962 7 910 -2
921 -2 965 -23z"/>
<path d="M1935 2236 c-60 -28 -87 -56 -114 -116 -36 -79 -19 -183 42 -249 33
-36 115 -71 167 -71 52 0 134 35 167 71 34 37 63 110 63 159 0 52 -35 134 -71
167 -37 34 -110 63 -159 63 -27 0 -65 -10 -95 -24z"/>
<path d="M1135 1944 c-146 -31 -302 -130 -391 -247 -190 -250 -190 -584 0
-834 119 -158 334 -263 536 -263 202 0 417 105 536 263 190 250 190 584 0 834
-152 201 -426 300 -681 247z m247 -155 c231 -48 418 -275 418 -509 0 -275
-245 -520 -520 -520 -275 0 -520 245 -520 520 0 129 59 267 156 363 126 126
299 180 466 146z"/>
</g>
</svg>
