<svg xmlns="http://www.w3.org/2000/svg" xmlns:xlink="http://www.w3.org/1999/xlink" width="43" height="41" viewBox="0 0 43 41"><defs><path id="2lgna" d="M186.977 73.999c-.017 0-.046-.323-.058-.46a87.178 87.178 0 0 1-5.147-1.11c-5.297-1.309-10.27-3.036-13.474-4.66-3.69-1.87-6.697-3.923-9.182-6.107l-7.674 12.078L144 54.428l8.14-1.987c-1.42-3.104-2.098-5.857-2.237-6.495-.178-.823-.139-1.633.152-2.368.67-1.694 2.662-2.962 5.298-2.959l3.789-7.62h23.644l-.03 2.737h-21.877l-2.444 4.967c.748.086 1.492.22 2.23.403.455.114.98.294 1.542.505l5.297-3.956 10.194 2.764-.77 2.641-8.857-2.367-2.86 2.112c.597.238 1.189.48 1.777.727.748.315 1.685.71 2.164.94 1.85.89 3.765 2.114 5.807 3.84 3.766 3.184 6.812 7.47 8.932 11.985 1.794 3.82 2.685 7.267 2.952 9.987.18 1.828.174 3.713.134 3.715zm-13.49-20.33c-2.185-1.82-4.416-2.666-4.983-1.886-.567.78.745 2.89 2.93 4.71 2.184 1.822 4.415 2.667 4.982 1.887.567-.78-.744-2.889-2.929-4.71z"/></defs><g><g transform="translate(-144 -33)"><use fill="#7c91d2" xlink:href="#2lgna"/></g></g></svg>