<svg xmlns="http://www.w3.org/2000/svg" xmlns:xlink="http://www.w3.org/1999/xlink" width="55" height="110" viewBox="0 0 55 110"><defs><path id="bv5ba" d="M1483 2555.059c0-2.627.373-5.226 1.108-7.726a1.617 1.617 0 0 1 3.102.907 24.143 24.143 0 0 0-.977 6.819c0 5.4 1.744 10.506 5.044 14.766 5.156 6.657 8.148 14.994 8.51 23.632h3.138v-22.934c0-.89.724-1.611 1.617-1.611s1.616.721 1.616 1.611v5.232c1.45.864 3.15-.352 3.358-.509a1.63 1.63 0 0 1 2.126.14c.98.976 2.419.568 3.278.182v-5.045c0-.89.724-1.611 1.617-1.611s1.616.721 1.616 1.611v22.934h3.044c.3-8.534 3.274-16.732 8.65-23.793a24.072 24.072 0 0 0 3.632-6.813 1.617 1.617 0 0 1 3.06 1.038 27.288 27.288 0 0 1-4.117 7.723c-4.973 6.533-7.722 14.108-7.995 21.983.708.201 1.34.617 1.805 1.215.67.86.897 1.96.624 3.015l-.972 3.745a3.668 3.668 0 0 1 2.668 3.52v4.278a3.671 3.671 0 0 1-3.673 3.661h-1.97l-1.39 5.353a3.502 3.502 0 0 1-3.392 2.618h-15.175a3.502 3.502 0 0 1-3.393-2.617l-1.39-5.354h-1.97a3.671 3.671 0 0 1-3.673-3.661v-4.277a3.67 3.67 0 0 1 2.668-3.521l-.972-3.744a3.467 3.467 0 0 1 .624-3.016 3.479 3.479 0 0 1 1.713-1.188c-.33-7.986-3.086-15.688-7.84-21.828-3.742-4.83-5.72-10.616-5.72-16.735zm35.094 46.369h4.489l1.143-4.409a.266.266 0 0 0-.05-.236.259.259 0 0 0-.213-.104h-5.31v4.319c0 .149-.021.292-.06.43zm-11.936-22.243v14.272h8.762v-14.492c-1.405.36-3.053.384-4.518-.485-1.139.583-2.682 1.02-4.243.705zm-.06 22.242h8.882a1.612 1.612 0 0 1-.06-.43v-4.318h-8.762v4.319c0 .149-.021.292-.06.43zm-9.899 3.223a.44.44 0 0 0-.44.44v4.278a.44.44 0 0 0 .44.438h7.511c.893 0 1.617.72 1.617 1.611 0 .89-.724 1.611-1.617 1.611h-2.201l1.18 4.547a.27.27 0 0 0 .263.202h15.175a.271.271 0 0 0 .263-.202l1.18-4.546h-9.61a1.614 1.614 0 0 1-1.616-1.611c0-.89.724-1.612 1.617-1.612h14.918a.44.44 0 0 0 .44-.438v-4.278a.44.44 0 0 0-.44-.44zm1.154-7.63l1.143 4.407h4.49a1.607 1.607 0 0 1-.06-.43v-4.318h-5.311a.258.258 0 0 0-.214.104.265.265 0 0 0-.048.237zm-10.57-55.844c4.941-8.373 14.005-13.53 23.726-13.531.134 0 .266 0 .4.003 7.18.104 13.947 2.976 19.053 8.086 5.106 5.11 7.96 11.867 8.036 19.026.009.845-.025 1.726-.1 2.618a1.618 1.618 0 0 1-1.746 1.471 1.613 1.613 0 0 1-1.475-1.74c.066-.792.096-1.57.088-2.315-.139-13.002-10.862-23.734-23.903-23.924a20.527 20.527 0 0 0-.353-.003c-8.579 0-16.578 4.553-20.94 11.944a1.619 1.619 0 0 1-2.213.571 1.608 1.608 0 0 1-.574-2.206zm28.2-2.786a1.617 1.617 0 0 1 1.999-1.106c10.41 2.972 12.348 13.417 12.425 13.86a1.612 1.612 0 0 1-1.316 1.864 1.615 1.615 0 0 1-1.869-1.308c-.067-.373-1.703-8.913-10.13-11.317a1.61 1.61 0 0 1-1.109-1.993zm-6.1-16.549v-9.23c0-.89.723-1.611 1.616-1.611.893 0 1.617.721 1.617 1.611v9.23c0 .89-.724 1.612-1.617 1.612a1.614 1.614 0 0 1-1.616-1.612zm19.296 3.173l6.548-6.526c.316-.315.73-.472 1.143-.472.414 0 .827.157 1.143.471.632.63.632 1.65 0 2.28l-6.547 6.526a1.62 1.62 0 0 1-2.286 0 1.608 1.608 0 0 1 0-2.279zm-44.194-6.527c.316-.314.73-.472 1.143-.472.414 0 .828.158 1.143.472l6.548 6.527c.631.63.631 1.65 0 2.279a1.62 1.62 0 0 1-2.286 0l-6.548-6.527a1.607 1.607 0 0 1 0-2.279z"/></defs><g><g transform="translate(-1483 -2511)"><g><use xlink:href="#bv5ba"/></g></g></g></svg>