<?xml version="1.0" standalone="no"?>
<!DOCTYPE svg PUBLIC "-//W3C//DTD SVG 20010904//EN"
 "http://www.w3.org/TR/2001/REC-SVG-20010904/DTD/svg10.dtd">
<svg version="1.0" xmlns="http://www.w3.org/2000/svg"
 width="256.000000pt" height="256.000000pt" viewBox="0 0 256.000000 256.000000"
 preserveAspectRatio="xMidYMid meet">
<metadata>
Created by potrace 1.15, written by Peter Selinger 2001-2017
</metadata>
<g transform="translate(0.000000,256.000000) scale(0.100000,-0.100000)"
fill="#000000" stroke="none">
<path d="M561 2540 c-248 -65 -443 -248 -527 -495 -37 -108 -45 -297 -19 -407
20 -81 61 -178 104 -248 27 -42 29 -54 34 -175 16 -374 212 -703 542 -906 157
-97 327 -148 520 -156 121 -5 133 -7 175 -34 130 -81 259 -119 410 -119 137 0
225 20 335 74 164 81 270 187 351 351 54 109 74 197 74 331 0 148 -37 277
-116 400 -31 48 -34 60 -34 126 0 157 -49 367 -116 500 -193 383 -579 628
-989 628 -78 0 -96 3 -118 21 -41 32 -185 95 -259 113 -94 23 -271 21 -367 -4z
m387 -170 c34 -12 95 -43 136 -70 l73 -47 149 -5 c171 -6 268 -30 402 -97 336
-169 551 -527 541 -896 -3 -99 -3 -100 30 -145 82 -112 121 -226 121 -358 0
-163 -57 -300 -175 -417 -119 -119 -254 -175 -421 -175 -132 0 -226 30 -341
108 l-58 39 -150 6 c-163 5 -239 22 -370 79 -211 93 -400 282 -493 493 -57
131 -74 207 -79 370 l-6 150 -39 58 c-78 115 -108 209 -108 341 0 171 56 306
179 426 80 79 160 126 262 155 80 22 264 14 347 -15z"/>
<path d="M1161 2099 c-239 -28 -430 -148 -517 -325 -38 -77 -39 -80 -39 -193
0 -109 2 -120 31 -181 44 -93 102 -160 183 -214 128 -85 234 -118 439 -135 95
-8 136 -16 178 -35 30 -14 54 -29 54 -34 0 -17 -77 -51 -143 -62 -117 -21
-225 8 -316 84 -113 94 -279 67 -353 -59 -18 -32 -23 -55 -23 -111 0 -66 3
-76 37 -125 70 -101 187 -178 343 -225 78 -23 109 -27 230 -28 235 -1 400 55
538 184 196 183 208 455 27 653 -122 134 -280 199 -522 216 -102 8 -139 14
-183 35 -30 14 -55 30 -55 35 0 17 72 49 139 61 111 20 226 -8 301 -75 60 -53
106 -69 181 -62 74 6 134 40 173 95 25 35 31 55 34 112 5 89 -18 139 -97 212
-104 97 -252 158 -426 178 -100 11 -109 11 -214 -1z m342 -188 c86 -30 150
-68 197 -116 49 -50 56 -88 20 -117 -35 -28 -71 -23 -109 16 -93 96 -327 139
-492 91 -93 -27 -177 -82 -204 -136 -19 -36 -19 -102 0 -138 44 -86 210 -160
360 -161 170 -2 329 -61 425 -159 132 -135 132 -287 0 -422 -201 -205 -639
-209 -842 -6 -56 55 -61 85 -22 116 35 27 54 26 95 -4 83 -60 111 -75 180 -96
56 -17 98 -23 174 -22 113 0 181 17 262 63 144 83 144 237 0 320 -76 44 -137
60 -271 70 -66 6 -147 17 -180 25 -137 35 -266 129 -313 230 -77 166 33 362
246 437 95 33 131 37 276 34 109 -3 153 -9 198 -25z"/>
</g>
</svg>
