<?xml version="1.0" standalone="no"?>
<!DOCTYPE svg PUBLIC "-//W3C//DTD SVG 20010904//EN"
 "http://www.w3.org/TR/2001/REC-SVG-20010904/DTD/svg10.dtd">
<svg version="1.0" xmlns="http://www.w3.org/2000/svg"
 width="256.000000pt" height="256.000000pt" viewBox="0 0 256.000000 256.000000"
 preserveAspectRatio="xMidYMid meet">
<metadata>
Created by potrace 1.15, written by Peter Selinger 2001-2017
</metadata>
<g transform="translate(0.000000,256.000000) scale(0.100000,-0.100000)"
fill="#000000" stroke="none">
<path d="M1281 1876 c-701 -282 -1276 -516 -1278 -522 -2 -5 131 -62 294 -125
l298 -116 157 -389 c86 -214 159 -393 161 -399 3 -5 98 83 212 196 l208 207
344 -275 c331 -263 373 -294 373 -278 0 5 115 503 255 1108 141 605 254 1101
253 1102 -2 2 -577 -227 -1277 -509z m855 -612 c-96 -412 -178 -764 -183 -782
l-8 -33 -358 284 c-197 157 -357 289 -355 294 3 9 1072 991 1075 988 2 -1 -75
-339 -171 -751z m-607 532 c-21 -18 -871 -526 -880 -526 -19 0 -232 84 -222
88 4 1 251 101 548 221 485 197 569 230 554 217z m231 -60 c-14 -12 -185 -169
-380 -348 l-355 -325 -45 -171 c-25 -94 -48 -168 -52 -164 -7 8 -155 378 -160
401 -2 8 185 128 502 321 278 169 507 308 510 309 2 1 -7 -10 -20 -23z"/>
</g>
</svg>
