<?xml version="1.0" standalone="no"?>
<!DOCTYPE svg PUBLIC "-//W3C//DTD SVG 20010904//EN"
 "http://www.w3.org/TR/2001/REC-SVG-20010904/DTD/svg10.dtd">
<svg version="1.0" xmlns="http://www.w3.org/2000/svg"
 width="256.000000pt" height="256.000000pt" viewBox="0 0 256.000000 256.000000"
 preserveAspectRatio="xMidYMid meet">
<metadata>
Created by potrace 1.15, written by Peter Selinger 2001-2017
</metadata>
<g transform="translate(0.000000,256.000000) scale(0.100000,-0.100000)"
fill="#000000" stroke="none">
<path d="M969 2030 c-61 -10 -97 -30 -160 -88 l-53 -49 85 -29 c99 -34 104
-42 120 -166 16 -121 -4 -326 -33 -344 -37 -23 -147 185 -246 466 -17 47 -40
111 -52 143 l-21 57 -305 0 c-285 0 -304 -1 -304 -18 0 -27 142 -376 229 -563
213 -456 437 -714 730 -839 136 -59 292 -90 447 -90 l91 0 10 113 c8 88 16
124 37 164 14 28 30 55 36 58 18 11 55 -21 155 -134 54 -61 119 -125 147 -142
79 -51 133 -59 421 -59 l257 0 0 43 c0 142 -70 261 -279 480 -59 61 -113 121
-119 133 -15 29 6 69 119 224 223 307 274 399 274 500 0 110 31 101 -331 98
l-316 -3 -29 -79 c-68 -187 -219 -456 -299 -531 -24 -23 -33 -27 -40 -16 -17
28 -21 126 -14 315 5 140 3 212 -6 260 -12 64 -13 66 -49 75 -105 28 -390 40
-502 21z m326 -157 l77 -6 -7 -217 c-8 -229 -1 -299 36 -372 37 -73 112 -108
187 -87 112 31 290 283 412 582 l24 57 178 0 178 0 -28 -50 c-15 -27 -86 -132
-159 -232 -167 -231 -196 -284 -197 -357 0 -82 23 -120 166 -269 114 -119 198
-222 198 -244 0 -13 -299 -9 -344 4 -44 14 -81 47 -210 192 -87 97 -150 136
-219 136 -108 0 -202 -113 -230 -276 l-11 -64 -51 6 c-387 47 -663 289 -902
793 -54 114 -163 370 -163 382 0 5 60 9 134 9 l133 0 38 -107 c120 -341 231
-530 332 -564 19 -6 54 -9 78 -7 79 9 127 66 161 188 25 90 25 347 1 438 -9
35 -17 66 -17 68 0 6 117 5 205 -3z"/>
</g>
</svg>
